<svg width="30" height="30" viewBox="0 0 30 30" fill="none" xmlns="http://www.w3.org/2000/svg">
<rect width="30" height="30" fill="#14213D"/>
<path d="M20.3072 11.3901H7.27995L9.94526 8.67231C10.3205 8.28973 10.3205 7.66955 9.94526 7.28697C9.56996 6.90429 8.96186 6.9044 8.58656 7.28697L4.28139 11.6771C3.9062 12.0597 3.9062 12.6799 4.28139 13.0624L8.58656 17.4523C8.77421 17.6437 9.02004 17.7393 9.26586 17.7393C9.51168 17.7393 9.75751 17.6436 9.94516 17.4523C10.3203 17.0698 10.3203 16.4496 9.94516 16.067L7.27984 13.3492H20.3071C22.3867 13.3492 24.0787 15.0745 24.0787 17.195C24.0787 19.3156 22.3867 21.0409 20.3071 21.0409L12 21C12 21 12 21.4589 12 22C12 22.5411 12 22.5 12 23H20.3071C23.4461 23 26 20.3959 26 17.195C26 13.9942 23.4462 11.3901 20.3072 11.3901Z" fill="white"/>
</svg>
